<?xml version="1.0" encoding="UTF-8"?>
<!DOCTYPE svg PUBLIC "-//W3C//DTD SVG 1.1//EN" "http://www.w3.org/Graphics/SVG/1.1/DTD/svg11.dtd">
<svg xmlns="http://www.w3.org/2000/svg" version="1.1" width="512px" height="512px" style="shape-rendering:geometricPrecision; text-rendering:geometricPrecision; image-rendering:optimizeQuality; fill-rule:evenodd; clip-rule:evenodd" xmlns:xlink="http://www.w3.org/1999/xlink">
<g><path style="opacity:0.976" fill="#020100" d="M 251.5,-0.5 C 254.5,-0.5 257.5,-0.5 260.5,-0.5C 261.688,0.363622 262.855,1.36362 264,2.5C 281.333,37.1667 298.667,71.8333 316,106.5C 316.784,117.045 311.95,121.212 301.5,119C 297.835,117.722 294.168,116.556 290.5,115.5C 288.953,151.824 288.62,188.157 289.5,224.5C 291.197,225.364 292.363,226.697 293,228.5C 296.116,263.122 298.616,297.789 300.5,332.5C 308.507,332.334 316.507,332.5 324.5,333C 326.848,333.346 328.681,334.513 330,336.5C 331.833,340.167 333.667,343.833 335.5,347.5C 342.803,348.497 350.137,348.831 357.5,348.5C 359.212,293.969 366.212,240.136 378.5,187C 378.333,186.167 378.167,185.333 378,184.5C 370.97,177.135 363.636,170.135 356,163.5C 353.418,157.713 354.251,152.546 358.5,148C 390.167,130.333 421.833,112.667 453.5,95C 462.219,92.2102 467.219,95.3769 468.5,104.5C 460.384,126.678 452.551,149.011 445,171.5C 431.298,216.344 421.298,262.01 415,308.5C 411.27,337.802 407.937,367.136 405,396.5C 403.457,398.378 401.624,399.878 399.5,401C 386.838,401.5 374.171,401.667 361.5,401.5C 363.72,408.343 361.72,413.51 355.5,417C 336.491,417.167 317.491,417.667 298.5,418.5C 295.065,434.842 291.565,451.175 288,467.5C 286.649,469.019 285.149,470.352 283.5,471.5C 282.668,482.151 282.168,492.818 282,503.5C 281.375,507.109 279.542,509.776 276.5,511.5C 262.833,511.5 249.167,511.5 235.5,511.5C 232.772,509.931 230.938,507.598 230,504.5C 229.731,493.452 228.898,482.452 227.5,471.5C 225.282,470.076 223.782,468.076 223,465.5C 219.512,449.551 216.346,433.551 213.5,417.5C 194.497,417.667 175.497,417.5 156.5,417C 150.251,413.995 148.251,409.162 150.5,402.5C 137.846,401.667 125.18,401.167 112.5,401C 110.061,400.226 108.227,398.726 107,396.5C 102.371,344.469 95.0375,292.802 85,241.5C 75.3503,196.23 61.6836,152.23 44,109.5C 41.6786,97.2463 46.512,92.413 58.5,95C 89.3385,112.587 120.338,129.92 151.5,147C 158.062,151.599 159.229,157.432 155,164.5C 147.323,171.345 139.823,178.345 132.5,185.5C 145.155,238.403 152.321,292.069 154,346.5C 157.402,347.789 161.069,348.456 165,348.5C 168.5,348.333 172,348.167 175.5,348C 177.752,342.824 180.752,338.157 184.5,334C 193.525,333.243 202.358,332.076 211,330.5C 213.286,297.497 215.619,264.497 218,231.5C 218.653,228.193 220.319,225.527 223,223.5C 223.109,187.157 222.442,150.824 221,114.5C 215.06,118.481 208.56,119.981 201.5,119C 195.975,116.081 194.142,111.581 196,105.5C 202.745,91.677 209.745,78.0103 217,64.5C 220.472,61.5715 224.306,60.9048 228.5,62.5C 234.436,66.0578 235.936,71.0578 233,77.5C 230.961,81.7453 228.794,85.912 226.5,90C 234.195,88.3353 239.362,91.1687 242,98.5C 243.018,139.828 243.518,181.161 243.5,222.5C 251.5,222.5 259.5,222.5 267.5,222.5C 268.488,180.838 269.321,139.171 270,97.5C 272.9,90.2999 278.067,87.7999 285.5,90C 273.853,66.5366 261.853,43.3699 249.5,20.5C 245.629,15.233 244.795,9.56636 247,3.5C 248.397,1.92975 249.897,0.596413 251.5,-0.5 Z"/></g>
<g><path style="opacity:0.996" fill="#fcb749" d="M 249.5,20.5 C 261.853,43.3699 273.853,66.5366 285.5,90C 278.067,87.7999 272.9,90.2999 270,97.5C 269.321,139.171 268.488,180.838 267.5,222.5C 259.5,222.5 251.5,222.5 243.5,222.5C 243.518,181.161 243.018,139.828 242,98.5C 239.362,91.1687 234.195,88.3353 226.5,90C 228.794,85.912 230.961,81.7453 233,77.5C 235.936,71.0578 234.436,66.0578 228.5,62.5C 229.833,59.8333 231.167,57.1667 232.5,54.5C 243.462,56.9418 248.295,52.6084 247,41.5C 245.668,39.34 244.168,37.34 242.5,35.5C 244.562,30.3752 246.896,25.3752 249.5,20.5 Z"/></g>
<g><path style="opacity:0.941" fill="#030200" d="M 242.5,35.5 C 244.168,37.34 245.668,39.34 247,41.5C 248.295,52.6084 243.462,56.9418 232.5,54.5C 227.335,50.5802 226.168,45.5802 229,39.5C 232.749,35.4152 237.249,34.0818 242.5,35.5 Z"/></g>
<g><path style="opacity:1" fill="#f9b648" d="M 73.5,127.5 C 92.4457,137.976 111.446,148.476 130.5,159C 124.365,164.134 118.531,169.634 113,175.5C 111.692,177.134 110.858,178.968 110.5,181C 120.288,217.228 126.788,254.062 130,291.5C 131.198,315.202 132.865,338.868 135,362.5C 136.5,365.333 138.667,367.5 141.5,369C 149.833,369.333 158.167,369.667 166.5,370C 164.933,373.525 163.267,377.025 161.5,380.5C 149.518,381.499 137.518,381.832 125.5,381.5C 120.694,314.367 109.527,248.367 92,183.5C 86.5248,164.575 80.3581,145.908 73.5,127.5 Z"/></g>
<g><path style="opacity:1" fill="#f9b548" d="M 436.5,127.5 C 437.097,127.735 437.43,128.235 437.5,129C 408.848,210.78 391.848,294.946 386.5,381.5C 374.482,381.832 362.482,381.499 350.5,380.5C 348.833,377.167 347.167,373.833 345.5,370.5C 353.145,369.669 360.812,369.169 368.5,369C 372.499,368.332 375.332,366.165 377,362.5C 378.276,301.288 386.109,240.954 400.5,181.5C 400.485,179.366 399.985,177.366 399,175.5C 392.865,170.366 387.031,164.866 381.5,159C 399.896,148.473 418.229,137.973 436.5,127.5 Z"/></g>
<g><path style="opacity:1" fill="#fa7f42" d="M 237.5,243.5 C 240.167,243.5 242.833,243.5 245.5,243.5C 245.5,283.833 245.5,324.167 245.5,364.5C 227.326,364.83 209.326,364.497 191.5,363.5C 192.544,360.408 193.878,357.408 195.5,354.5C 204.148,353.668 212.814,353.168 221.5,353C 224.548,352.394 227.048,350.894 229,348.5C 232.306,313.556 235.139,278.556 237.5,243.5 Z"/></g>
<g><path style="opacity:1" fill="#592d17" d="M 237.5,243.5 C 240.287,242.523 243.287,242.19 246.5,242.5C 246.832,283.67 246.499,324.67 245.5,365.5C 245.5,365.167 245.5,364.833 245.5,364.5C 245.5,324.167 245.5,283.833 245.5,243.5C 242.833,243.5 240.167,243.5 237.5,243.5 Z"/></g>
<g><path style="opacity:1" fill="#a6542c" d="M 274.5,244.5 C 271.946,243.612 269.279,243.279 266.5,243.5C 266.5,312.833 266.5,382.167 266.5,451.5C 267.833,451.5 269.167,451.5 270.5,451.5C 269.081,452.451 267.415,452.784 265.5,452.5C 265.5,382.5 265.5,312.5 265.5,242.5C 269.012,241.945 272.012,242.612 274.5,244.5 Z"/></g>
<g><path style="opacity:1" fill="#fb8043" d="M 274.5,244.5 C 276.998,277.805 279.165,311.138 281,344.5C 282.1,348.598 284.6,351.431 288.5,353C 297.5,353.333 306.5,353.667 315.5,354C 317.57,357.308 319.237,360.808 320.5,364.5C 311.191,377.387 314.525,384.554 330.5,386C 332.246,388.659 333.58,391.492 334.5,394.5C 319.361,396.162 304.027,397.162 288.5,397.5C 284.355,398.137 281.522,400.471 280,404.5C 277.15,420.252 273.983,435.918 270.5,451.5C 269.167,451.5 267.833,451.5 266.5,451.5C 266.5,382.167 266.5,312.833 266.5,243.5C 269.279,243.279 271.946,243.612 274.5,244.5 Z"/></g>
<g><path style="opacity:1" fill="#9c4f29" d="M 191.5,363.5 C 209.326,364.497 227.326,364.83 245.5,364.5C 245.5,364.833 245.5,365.167 245.5,365.5C 227.155,365.833 208.821,365.5 190.5,364.5C 190.624,363.893 190.957,363.56 191.5,363.5 Z"/></g>
<g><path style="opacity:1" fill="#050201" d="M 291.5,365.5 C 302.041,364.539 306.541,369.205 305,379.5C 301.702,384.22 297.202,385.72 291.5,384C 286.777,380.746 285.277,376.246 287,370.5C 288.366,368.638 289.866,366.972 291.5,365.5 Z"/></g>
<g><path style="opacity:1" fill="#fc8043" d="M 222.5,397.5 C 207.167,396.833 191.833,396.167 176.5,395.5C 177.544,392.408 178.878,389.408 180.5,386.5C 202.156,385.5 223.823,385.167 245.5,385.5C 245.5,407.833 245.5,430.167 245.5,452.5C 243.856,452.714 242.356,452.38 241,451.5C 237.869,436.179 234.869,420.846 232,405.5C 230.472,400.799 227.305,398.132 222.5,397.5 Z"/></g>
<g><path style="opacity:1" fill="#9c4f29" d="M 176.5,395.5 C 191.833,396.167 207.167,396.833 222.5,397.5C 206.819,397.833 191.152,397.499 175.5,396.5C 175.624,395.893 175.957,395.56 176.5,395.5 Z"/></g>
<g><path style="opacity:1" fill="#a1522a" d="M 334.5,394.5 C 335.404,395.209 335.737,396.209 335.5,397.5C 319.833,397.5 304.167,397.5 288.5,397.5C 304.027,397.162 319.361,396.162 334.5,394.5 Z"/></g>
<g><path style="opacity:1" fill="#f9b548" d="M 249.5,472.5 C 253.833,472.5 258.167,472.5 262.5,472.5C 262.5,478.833 262.5,485.167 262.5,491.5C 258.167,491.5 253.833,491.5 249.5,491.5C 249.5,485.167 249.5,478.833 249.5,472.5 Z"/></g>
</svg>
